<svg id="XMLID_6_" xmlns="http://www.w3.org/2000/svg" width="25.164" height="25.164" viewBox="0 0 25.164 25.164">
  <g id="XMLID_11_" transform="translate(2.288 9.233)">
    <path id="Tracé_7" data-name="Tracé 7" d="M46.013,121.076H30v11.737a1.144,1.144,0,0,0,1.144,1.144h7.442a8.005,8.005,0,1,0,7.428-12.881ZM44.87,134.72A5.719,5.719,0,1,1,50.589,129,5.726,5.726,0,0,1,44.87,134.72Z" transform="translate(-30 -121.076)" fill="#fff"/>
  </g>
  <g id="XMLID_18_">
    <path id="Tracé_8" data-name="Tracé 8" d="M18.3,6.863h1.144a1.144,1.144,0,1,0,0-2.288H16.013V1.144A1.144,1.144,0,0,0,14.87,0H5.719A1.144,1.144,0,0,0,4.575,1.144V4.575H1.144a1.144,1.144,0,0,0,0,2.288H18.3ZM6.863,2.288h6.863V4.575H6.863Z" fill="#fff"/>
  </g>
  <g id="XMLID_23_" transform="translate(14.396 14.396)">
    <path id="Tracé_9" data-name="Tracé 9" d="M193.975,189.123a1.144,1.144,0,0,0-1.618,0l-.809.809-.809-.809a1.144,1.144,0,1,0-1.618,1.618l.809.809-.809.809a1.144,1.144,0,1,0,1.618,1.618l.809-.809.809.809a1.144,1.144,0,1,0,1.618-1.618l-.809-.809.809-.809A1.144,1.144,0,0,0,193.975,189.123Z" transform="translate(-188.788 -188.788)" fill="#fb0"/>
  </g>
</svg>
