<svg xmlns="http://www.w3.org/2000/svg" width="25.9" height="20.35" viewBox="0 0 25.9 20.35">
  <g id="enter-svgrepo-com" transform="translate(-32 -80)">
    <path id="Tracé_4" data-name="Tracé 4" d="M160,83.238V89.25h8.867L165.821,86.2a.925.925,0,0,1,1.308-1.308l4.625,4.625a.925.925,0,0,1,0,1.308l-4.625,4.625a.925.925,0,0,1-1.308-1.308l3.046-3.046H160v6.013a3.241,3.241,0,0,0,3.238,3.238h12.025a3.241,3.241,0,0,0,3.238-3.238V83.238A3.241,3.241,0,0,0,175.263,80H163.238A3.241,3.241,0,0,0,160,83.238Z" transform="translate(-120.6)" fill="#fff"/>
    <path id="Tracé_5" data-name="Tracé 5" d="M32.925,240a.925.925,0,1,0,0,1.85H39.4V240Z" transform="translate(0 -150.75)" fill="#fff"/>
  </g>
</svg>
