<svg xmlns="http://www.w3.org/2000/svg" width="34.621" height="43.276" viewBox="0 0 34.621 43.276">
  <g id="_-System-Icons" data-name="ðŸ”-System-Icons" transform="translate(-8 -4)">
    <g id="ic_fluent_person_48_filled" transform="translate(8 4)">
      <path id="_-Color" data-name="ðŸŽ¨-Color" d="M38.023,29.966a4.6,4.6,0,0,1,4.593,4.374l.005.223v.813A10.308,10.308,0,0,1,37.3,44.442c-3.169,1.929-7.428,2.834-11.987,2.834s-8.818-.905-11.987-2.834a10.318,10.318,0,0,1-5.317-8.7L8,35.375v-.813a4.6,4.6,0,0,1,4.375-4.592l.223-.005ZM25.31,4A10.819,10.819,0,1,1,14.491,14.819,10.819,10.819,0,0,1,25.31,4Z" transform="translate(-8 -4)" fill="#fff"/>
    </g>
  </g>
</svg>
